<svg width="995" height="658" viewBox="0 0 995 658" fill="none" xmlns="http://www.w3.org/2000/svg">
<rect x="1.5" y="55.9969" width="992" height="600.503" stroke="black" stroke-width="3"/>
<rect width="187.178" height="54.4969" fill="black"/>
<path d="M49.9861 19V7.6875H54.2361C56.8299 7.6875 58.2127 9.26562 58.2205 11.4375C58.2127 13.6016 56.8142 15.1719 54.2049 15.1719H52.0174V19H49.9861ZM52.0174 13.5H53.9236C55.4549 13.4922 56.1424 12.6328 56.1424 11.4375C56.1424 10.2266 55.4549 9.39062 53.9236 9.39062H52.0174V13.5ZM61.7674 7.6875V19H59.7674V7.6875H61.7674ZM63.283 16.6094C63.283 14.7031 64.8689 14.1484 66.4392 14.0469C67.033 14 68.2439 13.9453 68.6189 13.9297L68.6111 13.25C68.6111 12.4062 68.0721 11.9219 67.0799 11.9219C66.1892 11.9219 65.6424 12.3281 65.4861 12.9375H63.5642C63.7049 11.4922 65.0017 10.4062 67.1267 10.4062C68.7361 10.4062 70.5955 11.0703 70.5955 13.3281V19H68.6892V17.8281H68.6267C68.2517 18.5469 67.4627 19.1719 66.1267 19.1719C64.5096 19.1719 63.283 18.2891 63.283 16.6094ZM65.2049 16.5938C65.2049 17.3281 65.8064 17.7031 66.6424 17.7031C67.8533 17.7031 68.6267 16.9062 68.6267 15.9531L68.6189 15.2578C68.2596 15.2734 67.1502 15.3438 66.7517 15.375C65.8064 15.4531 65.2049 15.8516 65.2049 16.5938ZM76.1736 19.1719C73.6424 19.1719 72.1111 17.3594 72.1111 14.7969C72.1111 12.1953 73.6892 10.4062 76.1736 10.4062C78.2283 10.4062 79.6736 11.6094 79.8142 13.4375H77.908C77.7517 12.625 77.158 12.0078 76.1892 12C74.9549 12.0078 74.1267 13.0391 74.1267 14.75C74.1267 16.5 74.9392 17.5391 76.1892 17.5469C77.0721 17.5391 77.7283 17.0234 77.908 16.1094H79.8142C79.6658 17.8984 78.3064 19.1719 76.1736 19.1719ZM85.0799 19.1719C82.5252 19.1719 80.9549 17.4688 80.9549 14.8125C80.9549 12.1875 82.5486 10.4062 84.9705 10.4062C87.0486 10.4062 88.8455 11.7109 88.8455 14.6875V15.3125H82.9236C82.9549 16.7578 83.8064 17.6172 85.0955 17.6094C85.9705 17.6172 86.5564 17.2422 86.8142 16.7344H88.7674C88.408 18.2031 87.0486 19.1719 85.0799 19.1719ZM82.9314 13.9531H86.9392C86.9314 12.7969 86.1502 11.9531 85.0017 11.9531C83.8064 11.9531 83.0017 12.875 82.9314 13.9531ZM92.3924 14.0312V19H90.3924V7.6875H92.3455V11.9531H92.4549C92.8377 10.9922 93.6658 10.4062 94.9705 10.4062C96.7283 10.4062 97.8924 11.5469 97.8924 13.5938V19H95.908V13.9062C95.9002 12.75 95.283 12.0859 94.2361 12.0938C93.158 12.0859 92.3924 12.7969 92.3924 14.0312ZM103.486 19.1719C101.01 19.1719 99.4236 17.4141 99.4236 14.7969C99.4236 12.1562 101.01 10.4062 103.486 10.4062C105.97 10.4062 107.556 12.1562 107.549 14.7969C107.556 17.4141 105.97 19.1719 103.486 19.1719ZM101.439 14.7812C101.439 16.3359 102.119 17.5781 103.502 17.5781C104.861 17.5781 105.541 16.3359 105.533 14.7812C105.541 13.2266 104.861 11.9766 103.502 11.9844C102.119 11.9766 101.439 13.2266 101.439 14.7812ZM111.095 7.6875V19H109.095V7.6875H111.095ZM116.158 19.1562C114.166 19.1484 112.658 17.5547 112.658 14.7656C112.658 11.9375 114.205 10.4062 116.174 10.4062C117.666 10.4062 118.291 11.3047 118.595 11.9062H118.674V7.6875H120.658V19H118.705V17.6562H118.595C118.275 18.2812 117.627 19.1484 116.158 19.1562ZM114.689 14.75C114.689 16.3516 115.392 17.5156 116.705 17.5156C117.994 17.5156 118.72 16.4062 118.72 14.75C118.72 13.1016 118.002 12.0391 116.705 12.0312C115.377 12.0391 114.689 13.1719 114.689 14.75ZM126.439 19.1719C123.885 19.1719 122.314 17.4688 122.314 14.8125C122.314 12.1875 123.908 10.4062 126.33 10.4062C128.408 10.4062 130.205 11.7109 130.205 14.6875V15.3125H124.283C124.314 16.7578 125.166 17.6172 126.455 17.6094C127.33 17.6172 127.916 17.2422 128.174 16.7344H130.127C129.767 18.2031 128.408 19.1719 126.439 19.1719ZM124.291 13.9531H128.299C128.291 12.7969 127.51 11.9531 126.361 11.9531C125.166 11.9531 124.361 12.875 124.291 13.9531ZM131.752 19V10.5156H133.689V11.9219H133.783C134.088 10.9453 134.9 10.3906 135.877 10.3906C136.095 10.3906 136.408 10.4141 136.595 10.4375V12.2812C136.416 12.2188 136.002 12.1641 135.674 12.1562C134.564 12.1641 133.752 12.9297 133.752 14V19H131.752Z" fill="white"/>
</svg>
