<svg width="100" height="100" viewBox="0 0 100 100" fill="none" xmlns="http://www.w3.org/2000/svg">
<rect x="1" y="1" width="98" height="98" rx="7" fill="#EFEFF0"/>
<mask id="mask0_87_11216" style="mask-type:luminance" maskUnits="userSpaceOnUse" x="40" y="40" width="20" height="20">
<path fill-rule="evenodd" clip-rule="evenodd" d="M40 40.0002H59.9596V59.95H40V40.0002Z" fill="white"/>
</mask>
<g mask="url(#mask0_87_11216)">
<path fill-rule="evenodd" clip-rule="evenodd" d="M45.65 41.5C43.129 41.5 41.5 43.227 41.5 45.899V54.051C41.5 56.724 43.129 58.45 45.65 58.45H54.3C56.827 58.45 58.46 56.724 58.46 54.051V45.899C58.46 43.227 56.827 41.5 54.3 41.5H45.65ZM54.3 59.95H45.65C42.27 59.95 40 57.579 40 54.051V45.899C40 42.371 42.27 40 45.65 40H54.3C57.685 40 59.96 42.371 59.96 45.899V54.051C59.96 57.579 57.685 59.95 54.3 59.95Z" fill="#AFB1B6"/>
</g>
<path fill-rule="evenodd" clip-rule="evenodd" d="M43.2813 55.1804C43.0953 55.1804 42.9103 55.1124 42.7653 54.9744C42.4643 54.6904 42.4523 54.2144 42.7373 53.9154L44.2653 52.3024C45.0743 51.4434 46.4393 51.4014 47.3023 52.2114L48.2603 53.1834C48.5273 53.4534 48.9613 53.4584 49.2293 53.1944C49.3303 53.0754 51.5083 50.4304 51.5083 50.4304C51.9223 49.9284 52.5063 49.6184 53.1553 49.5544C53.8053 49.4974 54.4363 49.6864 54.9393 50.0994C54.9823 50.1344 55.0213 50.1684 57.2173 52.4234C57.5063 52.7194 57.5013 53.1944 57.2043 53.4834C56.9083 53.7744 56.4323 53.7654 56.1433 53.4694C56.1433 53.4694 54.0943 51.3664 53.9483 51.2244C53.7933 51.0974 53.5443 51.0234 53.2993 51.0474C53.0503 51.0724 52.8263 51.1914 52.6673 51.3844C50.3433 54.2034 50.3153 54.2304 50.2773 54.2674C49.4193 55.1094 48.0343 55.0954 47.1913 54.2354C47.1913 54.2354 46.2613 53.2914 46.2453 53.2724C46.0143 53.0584 45.6023 53.0724 45.3553 53.3334L43.8253 54.9464C43.6773 55.1024 43.4793 55.1804 43.2813 55.1804Z" fill="#AFB1B6"/>
<path fill-rule="evenodd" clip-rule="evenodd" d="M46.5577 46.1289C46.0047 46.1289 45.5547 46.5789 45.5547 47.1329C45.5547 47.6869 46.0047 48.1379 46.5587 48.1379C47.1127 48.1379 47.5637 47.6869 47.5637 47.1329C47.5637 46.5799 47.1127 46.1299 46.5577 46.1289ZM46.5587 49.6379C45.1777 49.6379 44.0547 48.5139 44.0547 47.1329C44.0547 45.7519 45.1777 44.6289 46.5587 44.6289C47.9407 44.6299 49.0637 45.7539 49.0637 47.1329C49.0637 48.5139 47.9397 49.6379 46.5587 49.6379Z" fill="#AFB1B6"/>
<rect x="1" y="1" width="98" height="98" rx="7" stroke="#AFB1B6" stroke-width="2"/>
</svg>
