<svg width="42" height="42" viewBox="0 0 42 42" fill="none" xmlns="http://www.w3.org/2000/svg">
<circle cx="21" cy="21" r="21" fill="#C4C4C4"/>
<path d="M28.4861 11.375H13.5139C12.3326 11.375 11.375 12.3326 11.375 13.5139V28.4861C11.375 29.6674 12.3326 30.625 13.5139 30.625H28.4861C29.6674 30.625 30.625 29.6674 30.625 28.4861V13.5139C30.625 12.3326 29.6674 11.375 28.4861 11.375Z" stroke="white" stroke-width="1.5" stroke-linecap="round" stroke-linejoin="round"/>
<path d="M17.2565 18.861C18.1425 18.861 18.8607 18.1428 18.8607 17.2569C18.8607 16.3709 18.1425 15.6527 17.2565 15.6527C16.3706 15.6527 15.6523 16.3709 15.6523 17.2569C15.6523 18.1428 16.3706 18.861 17.2565 18.861Z" stroke="white" stroke-width="1.5" stroke-linecap="round" stroke-linejoin="round"/>
<path d="M30.6248 24.2083L25.2776 18.8611L13.5137 30.625" stroke="white" stroke-width="1.5" stroke-linecap="round" stroke-linejoin="round"/>
</svg>
