<svg width="28" height="28" viewBox="0 0 28 28" fill="none" xmlns="http://www.w3.org/2000/svg">
<path d="M21.1536 16.1667C22.0032 16.1667 22.8181 16.5091 23.4188 17.1186C24.0196 17.7281 24.3571 18.5547 24.3571 19.4167V20.1913C24.3571 24.0663 19.8615 27 13.6786 27C7.49568 27 3 24.2191 3 20.1913V19.4167C3 18.5547 3.33752 17.7281 3.9383 17.1186C4.53909 16.5091 5.35393 16.1667 6.20357 16.1667H21.1536ZM21.1536 17.7917H6.20357C5.80555 17.7917 5.42179 17.942 5.12706 18.2134C4.83232 18.4847 4.64774 18.8577 4.60926 19.2596L4.60179 19.4167V20.1913C4.60179 23.0881 8.22075 25.375 13.6786 25.375C18.9388 25.375 22.6005 23.0946 22.75 20.3657L22.7554 20.1913V19.4167C22.7554 19.0129 22.6072 18.6236 22.3397 18.3246C22.0722 18.0255 21.7046 17.8383 21.3084 17.7992L21.1536 17.7917ZM13.6786 1C14.52 1 15.3531 1.16813 16.1305 1.49478C16.9078 1.82144 17.6141 2.30023 18.2091 2.90381C18.8041 3.50739 19.276 4.22394 19.598 5.01256C19.92 5.80117 20.0857 6.64641 20.0857 7.5C20.0857 8.35359 19.92 9.19883 19.598 9.98744C19.276 10.7761 18.8041 11.4926 18.2091 12.0962C17.6141 12.6998 16.9078 13.1786 16.1305 13.5052C15.3531 13.8319 14.52 14 13.6786 14C11.9793 14 10.3496 13.3152 9.14804 12.0962C7.94647 10.8772 7.27143 9.22391 7.27143 7.5C7.27143 5.77609 7.94647 4.12279 9.14804 2.90381C10.3496 1.68482 11.9793 1 13.6786 1ZM13.6786 2.625C12.4041 2.625 11.1819 3.13861 10.2807 4.05285C9.37949 4.96709 8.87321 6.20707 8.87321 7.5C8.87321 8.79293 9.37949 10.0329 10.2807 10.9471C11.1819 11.8614 12.4041 12.375 13.6786 12.375C14.953 12.375 16.1753 11.8614 17.0765 10.9471C17.9777 10.0329 18.4839 8.79293 18.4839 7.5C18.4839 6.20707 17.9777 4.96709 17.0765 4.05285C16.1753 3.13861 14.953 2.625 13.6786 2.625Z" fill="white"/>
</svg>
