<svg width="28" height="28" viewBox="0 0 28 28" fill="none" xmlns="http://www.w3.org/2000/svg">
<g clip-path="url(#clip0_80_9527)">
<path d="M14.6067 0.224061C14.4376 0.0794607 14.2225 0 14 0C13.7775 0 13.5624 0.0794607 13.3933 0.224061L0 11.7041V25.2001C0 25.9427 0.294999 26.6549 0.820101 27.18C1.3452 27.7051 2.05739 28.0001 2.8 28.0001H10.2667C10.5142 28.0001 10.7516 27.9017 10.9266 27.7267C11.1017 27.5517 11.2 27.3143 11.2 27.0667V21.4667C11.2 20.7241 11.495 20.0119 12.0201 19.4868C12.5452 18.9617 13.2574 18.6667 14 18.6667C14.7426 18.6667 15.4548 18.9617 15.9799 19.4868C16.505 20.0119 16.8 20.7241 16.8 21.4667V27.0667C16.8 27.3143 16.8983 27.5517 17.0734 27.7267C17.2484 27.9017 17.4858 28.0001 17.7333 28.0001H25.2C25.9426 28.0001 26.6548 27.7051 27.1799 27.18C27.705 26.6549 28 25.9427 28 25.2001V11.7041L14.6067 0.224061Z" fill="#A6FF4D"/>
</g>
<defs>
<clipPath id="clip0_80_9527">
<rect width="28" height="28" fill="white"/>
</clipPath>
</defs>
</svg>
