<svg width="28" height="28" viewBox="0 0 28 28" fill="none" xmlns="http://www.w3.org/2000/svg">
<path fill-rule="evenodd" clip-rule="evenodd" d="M28 13.9999C28 20.6273 21.7315 25.9999 14 25.9999C11.5151 26.0101 9.06422 25.4338 6.85475 24.3199L0 25.9999L2.3415 20.6462C0.86275 18.7433 0 16.4582 0 13.9999C0 7.37254 6.2685 2 14 2C21.7315 2 28 7.37254 28 13.9999ZM8.75 13.9999C8.75 13.0532 7.98249 12.2857 7.03572 12.2857H6.96428C6.01751 12.2857 5.25 13.0532 5.25 13.9999C5.25 14.9467 6.01751 15.7142 6.96428 15.7142H7.03572C7.98249 15.7142 8.75 14.9467 8.75 13.9999ZM22.75 13.9999C22.75 13.0532 21.9825 12.2857 21.0357 12.2857H20.9643C20.0175 12.2857 19.25 13.0532 19.25 13.9999C19.25 14.9467 20.0175 15.7142 20.9643 15.7142H21.0357C21.9825 15.7142 22.75 14.9467 22.75 13.9999ZM12.25 13.9999C12.25 13.0532 13.0175 12.2857 13.9643 12.2857H14.0357C14.9825 12.2857 15.75 13.0532 15.75 13.9999C15.75 14.9467 14.9825 15.7142 14.0357 15.7142H13.9643C13.0175 15.7142 12.25 14.9467 12.25 13.9999Z" fill="#A6FF4D"/>
</svg>
