<svg width="24" height="24" viewBox="0 0 24 24" fill="none" xmlns="http://www.w3.org/2000/svg">
<path d="M8.81184 11.5009L15.0323 17.7199C15.1732 17.8608 15.2523 18.0518 15.2523 18.2509C15.2523 18.4501 15.1732 18.6411 15.0323 18.7819C14.8915 18.9228 14.7005 19.0019 14.5013 19.0019C14.3022 19.0019 14.1112 18.9228 13.9703 18.7819L7.22034 12.0319C7.1505 11.9623 7.09508 11.8795 7.05727 11.7884C7.01946 11.6973 7 11.5996 7 11.5009C7 11.4023 7.01946 11.3046 7.05727 11.2135C7.09508 11.1224 7.1505 11.0396 7.22034 10.9699L13.9703 4.21995C14.1112 4.07912 14.3022 4 14.5013 4C14.7005 4 14.8915 4.07912 15.0323 4.21995C15.1732 4.36078 15.2523 4.55178 15.2523 4.75095C15.2523 4.95011 15.1732 5.14112 15.0323 5.28195L8.81184 11.5009Z" fill="white"/>
</svg>
