<svg width="89" height="60" viewBox="0 0 89 60" fill="none" xmlns="http://www.w3.org/2000/svg">
<path d="M29.9993 37.7917L28.791 36.6917C24.4993 32.8 21.666 30.225 21.666 27.0833C21.666 24.5083 23.6827 22.5 26.2493 22.5C27.6993 22.5 29.091 23.175 29.9993 24.2333C30.9077 23.175 32.2993 22.5 33.7493 22.5C36.316 22.5 38.3327 24.5083 38.3327 27.0833C38.3327 30.225 35.4993 32.8 31.2077 36.6917L29.9993 37.7917Z" fill="#A6FF4D"/>
<path d="M65.9202 24.0132C65.5204 23.6055 65.0456 23.2821 64.5231 23.0615C64.0006 22.8409 63.4406 22.7273 62.875 22.7273C62.3094 22.7273 61.7494 22.8409 61.2268 23.0615C60.7043 23.2821 60.2296 23.6055 59.8298 24.0132L59 24.8589L58.1702 24.0132C57.3625 23.1901 56.2671 22.7277 55.1249 22.7277C53.9828 22.7277 52.8874 23.1901 52.0797 24.0132C51.2721 24.8363 50.8184 25.9527 50.8184 27.1167C50.8184 28.2807 51.2721 29.3971 52.0797 30.2201L52.9095 31.0658L59 37.2728L65.0904 31.0658L65.9202 30.2201C66.3202 29.8127 66.6376 29.3289 66.8541 28.7963C67.0706 28.2638 67.182 27.6931 67.182 27.1167C67.182 26.5403 67.0706 25.9695 66.8541 25.437C66.6376 24.9045 66.3202 24.4207 65.9202 24.0132Z" stroke="white" stroke-width="1.5" stroke-linecap="round" stroke-linejoin="round"/>
<rect x="0.5" y="0.5" width="88" height="59" rx="4.5" stroke="#9747FF" stroke-dasharray="10 5"/>
</svg>
