<svg width="19" height="19" viewBox="0 0 19 19" fill="none" xmlns="http://www.w3.org/2000/svg">
<path fill-rule="evenodd" clip-rule="evenodd" d="M16.4275 17.3689H10.6855C10.3578 17.3689 10.0918 17.1029 10.0918 16.7751C10.0918 16.4474 10.3578 16.1814 10.6855 16.1814H16.4275C16.7553 16.1814 17.0213 16.4474 17.0213 16.7751C17.0213 17.1029 16.7553 17.3689 16.4275 17.3689" fill="white"/>
<mask id="mask0_80_8193" style="mask-type:luminance" maskUnits="userSpaceOnUse" x="1" y="2" width="15" height="16">
<path fill-rule="evenodd" clip-rule="evenodd" d="M1.58398 2.37512H15.1853V17.3689H1.58398V2.37512Z" fill="white"/>
</mask>
<g mask="url(#mask0_80_8193)">
<path fill-rule="evenodd" clip-rule="evenodd" d="M10.3796 3.97163L2.92608 13.2935C2.7907 13.4629 2.74083 13.6814 2.7907 13.8912L3.32983 16.1752L5.7357 16.1451C5.96449 16.1427 6.17587 16.0406 6.31599 15.8664C8.86278 12.68 13.7181 6.60471 13.8558 6.42659C13.9857 6.21601 14.0363 5.91834 13.9682 5.63176C13.8986 5.33805 13.7157 5.08867 13.4521 4.92955C13.3959 4.89076 12.0619 3.85526 12.0207 3.8228C11.5188 3.42063 10.7865 3.4903 10.3796 3.97163V3.97163ZM2.86116 17.369C2.58645 17.369 2.34737 17.1806 2.28324 16.9122L1.63487 14.1643C1.50108 13.5951 1.63408 13.0077 1.99903 12.5517L9.45653 3.2243C9.4597 3.22113 9.46208 3.21717 9.46524 3.21401C10.283 2.2363 11.7619 2.09221 12.7594 2.89259C12.799 2.92346 14.1234 3.95263 14.1234 3.95263C14.6047 4.23921 14.9808 4.75142 15.1233 5.35784C15.265 5.95792 15.1621 6.57701 14.832 7.1003C14.8074 7.13909 14.786 7.17234 7.24303 16.609C6.87966 17.0618 6.33499 17.3255 5.74995 17.3326L2.86908 17.369H2.86116Z" fill="white"/>
</g>
<path fill-rule="evenodd" clip-rule="evenodd" d="M12.8435 9.25044C12.7168 9.25044 12.5901 9.21006 12.4817 9.12773L8.1655 5.81223C7.90583 5.61273 7.85675 5.24065 8.05625 4.9794C8.25654 4.71973 8.62863 4.67144 8.88908 4.87094L13.206 8.18565C13.4657 8.38515 13.5148 8.75802 13.3145 9.01848C13.1981 9.17048 13.0216 9.25044 12.8435 9.25044" fill="white"/>
</svg>
