<svg width="24" height="24" viewBox="0 0 24 24" fill="none" xmlns="http://www.w3.org/2000/svg">
<path d="M11.9997 1.92856C14.2162 1.92856 16.3418 2.80904 17.9091 4.37631C19.4764 5.94358 20.3569 8.06925 20.3569 10.2857C20.3569 13.8171 17.8754 17.6657 12.9769 21.8726C12.7045 22.1065 12.3572 22.2351 11.9981 22.2347C11.639 22.2344 11.292 22.1053 11.02 21.8708L10.696 21.5897C6.01429 17.4926 3.64258 13.7383 3.64258 10.2857C3.64258 8.06925 4.52306 5.94358 6.09033 4.37631C7.6576 2.80904 9.78327 1.92856 11.9997 1.92856ZM11.9997 3.21427C10.1243 3.21427 8.32562 3.9593 6.99947 5.28545C5.67332 6.6116 4.92829 8.41024 4.92829 10.2857C4.92829 13.2874 7.11229 16.746 11.5403 20.6203L11.86 20.8971C11.8989 20.9306 11.9485 20.9489 11.9997 20.9489C12.051 20.9489 12.1006 20.9306 12.1394 20.8971C16.7817 16.9097 19.0711 13.3586 19.0711 10.2857C19.0711 9.35707 18.8882 8.43753 18.5329 7.57958C18.1775 6.72164 17.6566 5.94209 17 5.28545C16.3433 4.6288 15.5638 4.10793 14.7058 3.75255C13.8479 3.39718 12.9284 3.21427 11.9997 3.21427ZM11.9997 7.07142C12.8522 7.07142 13.6698 7.41006 14.2726 8.01286C14.8754 8.61565 15.214 9.43322 15.214 10.2857C15.214 11.1382 14.8754 11.9557 14.2726 12.5585C13.6698 13.1613 12.8522 13.5 11.9997 13.5C11.1472 13.5 10.3297 13.1613 9.72688 12.5585C9.12408 11.9557 8.78543 11.1382 8.78543 10.2857C8.78543 9.43322 9.12408 8.61565 9.72688 8.01286C10.3297 7.41006 11.1472 7.07142 11.9997 7.07142ZM11.9997 8.35713C11.4882 8.35713 10.9977 8.56032 10.636 8.922C10.2743 9.28367 10.0711 9.77421 10.0711 10.2857C10.0711 10.7972 10.2743 11.2877 10.636 11.6494C10.9977 12.0111 11.4882 12.2143 11.9997 12.2143C12.5112 12.2143 13.0017 12.0111 13.3634 11.6494C13.7251 11.2877 13.9283 10.7972 13.9283 10.2857C13.9283 9.77421 13.7251 9.28367 13.3634 8.922C13.0017 8.56032 12.5112 8.35713 11.9997 8.35713Z" fill="white"/>
</svg>
