<svg width="100" height="100" viewBox="0 0 100 100" fill="none" xmlns="http://www.w3.org/2000/svg">
<rect width="100" height="100" rx="20" fill="#141414"/>
<path d="M22.175 68.35C23.3083 68.35 24.2917 68.525 25.125 68.875C25.975 69.2083 26.6167 69.675 27.05 70.275C27.5 70.8583 27.725 71.5333 27.725 72.3C27.725 72.7333 27.6667 73.1333 27.55 73.5C27.0667 75.1833 25.675 76.25 23.375 76.7C24.175 76.9333 24.8083 77.325 25.275 77.875C25.7417 78.4083 25.975 79.075 25.975 79.875C25.975 80.2417 25.9083 80.675 25.775 81.175C25.4083 82.475 24.6667 83.4417 23.55 84.075C22.45 84.6917 20.8833 85 18.85 85H8.45C8.1 85 7.83333 84.9417 7.65 84.825C7.45 84.7083 7.35 84.55 7.35 84.35C7.35 84.25 7.375 84.1417 7.425 84.025C7.49167 83.8417 7.6 83.7 7.75 83.6C7.9 83.5 7.99167 83.4417 8.025 83.425C8.29167 83.2583 8.50833 83.0917 8.675 82.925C8.84167 82.7417 8.98333 82.45 9.1 82.05L12.15 71.275C12.2167 71.0583 12.25 70.85 12.25 70.65C12.25 70.4667 12.2167 70.3167 12.15 70.2C12.1 70.0667 12.025 69.9167 11.925 69.75C11.775 69.5333 11.7 69.3583 11.7 69.225C11.7 69.175 11.7167 69.0833 11.75 68.95C11.8167 68.7333 11.9583 68.5833 12.175 68.5C12.4083 68.4 12.7583 68.35 13.225 68.35H22.175ZM21.05 72.925C21.1667 72.5583 21.225 72.2167 21.225 71.9C21.225 71.0333 20.7333 70.6 19.75 70.6H18.625L17.3 75.275H18.4C19.1 75.275 19.65 75.1083 20.05 74.775C20.4667 74.425 20.8 73.8083 21.05 72.925ZM19.225 80.275C19.3417 79.875 19.4 79.5083 19.4 79.175C19.4 78.275 18.8833 77.825 17.85 77.825H16.6L15.175 82.75H16.45C17.1667 82.75 17.7417 82.575 18.175 82.225C18.6083 81.8583 18.9583 81.2083 19.225 80.275ZM41.9486 81.55C41.9152 81.6833 41.8986 81.7833 41.8986 81.85C41.8986 81.9667 41.9236 82.0583 41.9736 82.125C42.0402 82.1917 42.1236 82.225 42.2236 82.225C42.4236 82.225 42.5902 82.1417 42.7236 81.975C42.8736 81.7917 42.9736 81.7 43.0236 81.7C43.1069 81.7 43.1736 81.7583 43.2236 81.875C43.2902 81.975 43.3236 82.1 43.3236 82.25C43.3402 82.7167 43.1736 83.1833 42.8236 83.65C42.4736 84.1 41.9819 84.475 41.3486 84.775C40.7152 85.075 40.0069 85.225 39.2236 85.225C38.2402 85.225 37.4569 85.025 36.8736 84.625C36.2902 84.225 35.9152 83.7 35.7486 83.05C35.1486 83.7167 34.4819 84.225 33.7486 84.575C33.0319 84.9083 32.2986 85.075 31.5486 85.075C30.3819 85.075 29.3986 84.7917 28.5986 84.225C27.8152 83.6417 27.4236 82.8333 27.4236 81.8C27.4236 81.3333 27.5069 80.85 27.6736 80.35L29.2736 75.125C29.3236 74.975 29.3486 74.85 29.3486 74.75C29.3486 74.5667 29.3069 74.425 29.2236 74.325C29.1402 74.2083 29.0152 74.0917 28.8486 73.975C28.6819 73.8417 28.5652 73.725 28.4986 73.625C28.4319 73.525 28.4236 73.3917 28.4736 73.225C28.5736 72.8417 29.0986 72.5083 30.0486 72.225C30.9986 71.925 31.9902 71.775 33.0236 71.775C33.9902 71.775 34.6986 71.9583 35.1486 72.325C35.5986 72.6917 35.8236 73.1917 35.8236 73.825C35.8236 74.2083 35.7652 74.575 35.6486 74.925L34.0736 80.125C34.0069 80.3083 33.9736 80.4833 33.9736 80.65C33.9736 80.8833 34.0402 81.0583 34.1736 81.175C34.3069 81.2917 34.4819 81.35 34.6986 81.35C35.0152 81.35 35.2736 81.2583 35.4736 81.075C35.6736 80.8917 35.8736 80.5833 36.0736 80.15L37.5986 75.125C37.6486 74.975 37.6736 74.85 37.6736 74.75C37.6736 74.5667 37.6319 74.425 37.5486 74.325C37.4652 74.2083 37.3486 74.0917 37.1986 73.975C37.0319 73.8417 36.9152 73.725 36.8486 73.625C36.7819 73.525 36.7736 73.3917 36.8236 73.225C36.9069 72.8417 37.4236 72.5083 38.3736 72.225C39.3236 71.925 40.3152 71.775 41.3486 71.775C42.3152 71.775 43.0236 71.9583 43.4736 72.325C43.9402 72.6917 44.1736 73.1833 44.1736 73.8C44.1736 74.1167 44.1069 74.4917 43.9736 74.925L41.9486 81.55ZM58.2922 81.4C58.2589 81.5333 58.2422 81.625 58.2422 81.675C58.2422 81.7917 58.2756 81.8833 58.3422 81.95C58.4089 82.0167 58.4922 82.05 58.5922 82.05C58.7922 82.05 58.9589 81.9667 59.0922 81.8C59.2422 81.6167 59.3422 81.525 59.3922 81.525C59.4756 81.525 59.5422 81.5833 59.5922 81.7C59.6422 81.8167 59.6672 81.95 59.6672 82.1C59.6839 82.55 59.5089 83.0083 59.1422 83.475C58.7922 83.9417 58.3172 84.325 57.7172 84.625C57.1172 84.925 56.4672 85.075 55.7672 85.075C54.9339 85.075 54.2089 84.9167 53.5922 84.6C52.9756 84.2833 52.5506 83.8667 52.3172 83.35C51.8672 83.9333 51.3506 84.3667 50.7672 84.65C50.1839 84.9333 49.5672 85.075 48.9172 85.075C48.1506 85.075 47.4339 84.8833 46.7672 84.5C46.1172 84.1167 45.5922 83.575 45.1922 82.875C44.8089 82.1583 44.6172 81.35 44.6172 80.45C44.6172 78.9333 44.9006 77.5083 45.4672 76.175C46.0506 74.825 46.8589 73.7417 47.8922 72.925C48.9256 72.0917 50.1006 71.675 51.4172 71.675C52.1339 71.675 52.7422 71.7583 53.2422 71.925C53.7589 72.0917 54.2256 72.3417 54.6422 72.675L55.4922 69.875C55.5422 69.725 55.5672 69.6 55.5672 69.5C55.5672 69.3167 55.5172 69.1667 55.4172 69.05C55.3339 68.9333 55.2172 68.8167 55.0672 68.7C54.9006 68.5667 54.7756 68.45 54.6922 68.35C54.6256 68.25 54.6172 68.1167 54.6672 67.95C54.7672 67.5667 55.2922 67.2333 56.2422 66.95C57.1922 66.6667 58.1839 66.525 59.2172 66.525C60.1839 66.525 60.8922 66.7083 61.3422 67.075C61.8089 67.4417 62.0422 67.9417 62.0422 68.575C62.0422 68.9417 61.9839 69.3 61.8672 69.65L58.2922 81.4ZM54.1172 74.375C53.8506 74.1417 53.5589 74.025 53.2422 74.025C52.7589 74.025 52.2839 74.3833 51.8172 75.1C51.3506 75.8167 50.9756 76.6833 50.6922 77.7C50.4089 78.7167 50.2756 79.6333 50.2922 80.45C50.2922 81.3667 50.5922 81.825 51.1922 81.825C51.4089 81.825 51.5922 81.7417 51.7422 81.575C51.8922 81.3917 52.0339 81.1 52.1672 80.7L54.1172 74.375ZM72.7521 81.4C72.7188 81.5333 72.7021 81.625 72.7021 81.675C72.7021 81.7917 72.7354 81.8833 72.8021 81.95C72.8688 82.0167 72.9521 82.05 73.0521 82.05C73.2521 82.05 73.4188 81.9667 73.5521 81.8C73.7021 81.6167 73.8021 81.525 73.8521 81.525C73.9354 81.525 74.0021 81.5833 74.0521 81.7C74.1021 81.8167 74.1271 81.95 74.1271 82.1C74.1438 82.55 73.9688 83.0083 73.6021 83.475C73.2521 83.9417 72.7771 84.325 72.1771 84.625C71.5771 84.925 70.9271 85.075 70.2271 85.075C69.3938 85.075 68.6688 84.9167 68.0521 84.6C67.4354 84.2833 67.0104 83.8667 66.7771 83.35C66.3271 83.9333 65.8104 84.3667 65.2271 84.65C64.6438 84.9333 64.0271 85.075 63.3771 85.075C62.6104 85.075 61.8938 84.8833 61.2271 84.5C60.5771 84.1167 60.0521 83.575 59.6521 82.875C59.2688 82.1583 59.0771 81.35 59.0771 80.45C59.0771 78.9333 59.3604 77.5083 59.9271 76.175C60.5104 74.825 61.3188 73.7417 62.3521 72.925C63.3854 72.0917 64.5604 71.675 65.8771 71.675C66.5938 71.675 67.2021 71.7583 67.7021 71.925C68.2188 72.0917 68.6854 72.3417 69.1021 72.675L69.9521 69.875C70.0021 69.725 70.0271 69.6 70.0271 69.5C70.0271 69.3167 69.9771 69.1667 69.8771 69.05C69.7938 68.9333 69.6771 68.8167 69.5271 68.7C69.3604 68.5667 69.2354 68.45 69.1521 68.35C69.0854 68.25 69.0771 68.1167 69.1271 67.95C69.2271 67.5667 69.7521 67.2333 70.7021 66.95C71.6521 66.6667 72.6438 66.525 73.6771 66.525C74.6438 66.525 75.3521 66.7083 75.8021 67.075C76.2688 67.4417 76.5021 67.9417 76.5021 68.575C76.5021 68.9417 76.4438 69.3 76.3271 69.65L72.7521 81.4ZM68.5771 74.375C68.3104 74.1417 68.0188 74.025 67.7021 74.025C67.2188 74.025 66.7438 74.3833 66.2771 75.1C65.8104 75.8167 65.4354 76.6833 65.1521 77.7C64.8688 78.7167 64.7354 79.6333 64.7521 80.45C64.7521 81.3667 65.0521 81.825 65.6521 81.825C65.8688 81.825 66.0521 81.7417 66.2021 81.575C66.3521 81.3917 66.4938 81.1 66.6271 80.7L68.5771 74.375ZM88.4889 71.775C89.2223 71.775 89.8056 72.075 90.2389 72.675C90.6889 73.2583 90.9139 74.0583 90.9139 75.075C90.9139 75.9583 90.7556 76.9083 90.4389 77.925C89.8223 79.975 88.8306 81.9083 87.4639 83.725C86.1139 85.5417 84.5556 87 82.7889 88.1C81.0389 89.2 79.2889 89.75 77.5389 89.75C76.6723 89.75 75.9223 89.6 75.2889 89.3C74.6723 89 74.2056 88.6 73.8889 88.1C73.5556 87.6 73.3889 87.0667 73.3889 86.5C73.3889 86.25 73.4306 85.975 73.5139 85.675C73.6639 85.2083 73.9139 84.85 74.2639 84.6C74.6139 84.35 75.0306 84.225 75.5139 84.225C76.2806 84.225 76.9056 84.4833 77.3889 85C77.8889 85.5333 78.2056 86.2583 78.3389 87.175C79.4056 87.125 80.3889 86.6667 81.2889 85.8C80.4389 85.65 79.8056 85.3667 79.3889 84.95C78.9889 84.5167 78.7139 83.85 78.5639 82.95L77.5639 76.825C77.5139 76.5083 77.4389 76.2917 77.3389 76.175C77.2556 76.0417 77.1389 75.975 76.9889 75.975C76.8723 75.975 76.7306 76.0333 76.5639 76.15C76.4139 76.2667 76.3056 76.325 76.2389 76.325C76.1056 76.325 76.0389 76.1833 76.0389 75.9C76.0389 75.6667 76.0806 75.4167 76.1639 75.15C76.4639 74.2 77.0223 73.4 77.8389 72.75C78.6556 72.0833 79.6056 71.75 80.6889 71.75C81.7556 71.75 82.5389 72.0667 83.0389 72.7C83.5556 73.3333 83.8889 74.3083 84.0389 75.625L84.7889 81.125C84.8389 81.5417 84.9889 81.75 85.2389 81.75C85.5389 81.75 85.8889 81.4833 86.2889 80.95C86.6889 80.4 87.0806 79.625 87.4639 78.625C86.9639 78.175 86.5806 77.6583 86.3139 77.075C86.0473 76.4917 85.9139 75.8667 85.9139 75.2C85.9139 74.6833 85.9806 74.2167 86.1139 73.8C86.3139 73.1333 86.6223 72.6333 87.0389 72.3C87.4723 71.95 87.9556 71.775 88.4889 71.775Z" fill="#A6FF4D"/>
<path d="M46.8294 12.9058C45.1345 13.258 39.1548 15.0499 37.1334 20.5052C35.9876 23.603 33.0507 29.1122 31.2899 34.9094C30.2612 38.5035 29.504 42.1996 29.0275 45.9537C28.9592 46.4561 29.0188 46.9714 29.1985 47.4333C29.3781 47.8953 29.6698 48.2829 30.036 48.5463C34.0609 51.2564 38.6274 52.6212 43.2515 52.4964C52.674 52.4964 55.2142 50.1094 55.2142 50.1094C55.3785 51.1814 59.5163 59.8039 59.5163 59.8039C69.1842 53.5671 72.0108 40.4637 70.945 32.4736C67.9952 33.4968 65.7836 37.3453 65.7836 37.3453C65.7836 37.3453 62.424 34.0803 59.5574 34.0803C56.6908 34.0803 49.9944 38.515 49.9944 38.515C49.5975 37.9885 49.1052 37.5761 48.5547 37.3089C48.0041 37.0417 47.4098 36.9267 46.8164 36.9725C44.5767 36.9725 40.7264 40.0729 40.7264 40.0729C40.0904 36.7829 39.7198 33.4282 39.6196 30.0544C39.7857 26.9878 40.6548 24.0338 42.1327 21.5129C42.1327 21.5129 45.7377 22.0978 46.7202 21.2198C47.1052 20.9191 47.4624 20.571 47.786 20.1812C47.786 20.1812 50.5716 22.5194 50.8991 20.117C50.9774 19.7839 50.9696 19.4306 50.8769 19.1028C50.7842 18.775 50.6108 18.4879 50.3792 18.2788C50.3792 18.2788 51.6363 17.3225 50.217 14.8211C48.7978 12.3197 47.9222 12.6783 46.8294 12.9058Z" fill="#A6FF4D"/>
</svg>
