<svg width="26" height="26" viewBox="0 0 26 26" fill="none" xmlns="http://www.w3.org/2000/svg">
<path d="M20.4861 3.375H5.51389C4.33261 3.375 3.375 4.33261 3.375 5.51389V20.4861C3.375 21.6674 4.33261 22.625 5.51389 22.625H20.4861C21.6674 22.625 22.625 21.6674 22.625 20.4861V5.51389C22.625 4.33261 21.6674 3.375 20.4861 3.375Z" stroke="white" stroke-width="1.5" stroke-linecap="round" stroke-linejoin="round"/>
<path d="M9.25651 10.8611C10.1425 10.8611 10.8607 10.1429 10.8607 9.25694C10.8607 8.37098 10.1425 7.65277 9.25651 7.65277C8.37055 7.65277 7.65234 8.37098 7.65234 9.25694C7.65234 10.1429 8.37055 10.8611 9.25651 10.8611Z" stroke="white" stroke-width="1.5" stroke-linecap="round" stroke-linejoin="round"/>
<path d="M22.6248 16.2083L17.2776 10.8611L5.51367 22.625" stroke="white" stroke-width="1.5" stroke-linecap="round" stroke-linejoin="round"/>
</svg>
