<svg width="24" height="24" viewBox="0 0 24 24" fill="none" xmlns="http://www.w3.org/2000/svg">
<path d="M11.9997 1.92856C14.2162 1.92856 16.3418 2.80904 17.9091 4.37631C19.4764 5.94358 20.3569 8.06925 20.3569 10.2857C20.3569 13.8171 17.8754 17.6657 12.9769 21.8726C12.7045 22.1065 12.3572 22.2351 11.9981 22.2347C11.639 22.2344 11.292 22.1053 11.02 21.8708L10.696 21.5897C6.01429 17.4926 3.64258 13.7383 3.64258 10.2857C3.64258 8.06925 4.52306 5.94358 6.09033 4.37631C7.6576 2.80904 9.78327 1.92856 11.9997 1.92856ZM11.9997 7.07142C11.1472 7.07142 10.3297 7.41006 9.72688 8.01286C9.12408 8.61565 8.78543 9.43322 8.78543 10.2857C8.78543 11.1382 9.12408 11.9557 9.72688 12.5585C10.3297 13.1613 11.1472 13.5 11.9997 13.5C12.8522 13.5 13.6698 13.1613 14.2726 12.5585C14.8754 11.9557 15.214 11.1382 15.214 10.2857C15.214 9.43322 14.8754 8.61565 14.2726 8.01286C13.6698 7.41006 12.8522 7.07142 11.9997 7.07142Z" fill="white"/>
</svg>
