<svg width="43" height="48" viewBox="0 0 43 48" fill="none" xmlns="http://www.w3.org/2000/svg">
<path d="M18.186 0.163918C16.4572 0.523164 10.3579 2.35086 8.29609 7.91524C7.12738 11.075 4.13175 16.6945 2.33569 22.6076C1.28638 26.2736 0.514103 30.0436 0.028049 33.8727C-0.0415858 34.3852 0.0191348 34.9108 0.202421 35.382C0.385707 35.8532 0.6832 36.2485 1.05673 36.5172C5.16216 39.2815 9.81992 40.6737 14.5365 40.5463C24.1475 40.5463 26.7385 38.1116 26.7385 38.1116C26.9061 39.205 31.1266 48 31.1266 48C40.9879 41.6385 43.871 28.2729 42.7839 20.123C39.7751 21.1667 37.5192 25.0922 37.5192 25.0922C37.5192 25.0922 34.0925 21.7619 31.1685 21.7619C28.2446 21.7619 21.4143 26.2853 21.4143 26.2853C21.0094 25.7483 20.5073 25.3276 19.9458 25.055C19.3842 24.7825 18.778 24.6652 18.1728 24.7119C15.8883 24.7119 11.961 27.8744 11.961 27.8744C11.3122 24.5185 10.9342 21.0967 10.832 17.6555C11.0014 14.5275 11.8879 11.5144 13.3954 8.94315C13.3954 8.94315 17.0724 9.53971 18.0746 8.64422C18.4673 8.33745 18.8316 7.98236 19.1617 7.58484C19.1617 7.58484 22.003 9.96976 22.3371 7.51928C22.4169 7.17956 22.409 6.81915 22.3145 6.48482C22.2199 6.15049 22.043 5.85768 21.8068 5.64438C21.8068 5.64438 23.089 4.66891 21.6414 2.11748C20.1937 -0.433951 19.3007 -0.0681494 18.186 0.163918Z" fill="#A6FF4D"/>
</svg>
