<svg width="16" height="16" viewBox="0 0 16 16" fill="none" xmlns="http://www.w3.org/2000/svg">
<g clip-path="url(#clip0_634_13230)">
<circle cx="8" cy="8" r="8" fill="#A6FF4D"/>
<path d="M9.91936 6.80784L8.60725 5.24745C8.70701 5.13784 8.77137 5.0035 8.79268 4.86039C8.81399 4.71728 8.79135 4.5714 8.72746 4.44007C8.66357 4.30874 8.56111 4.19747 8.43224 4.11947C8.30336 4.04146 8.15349 4 8.0004 4C7.84731 4 7.69744 4.04146 7.56856 4.11947C7.43969 4.19747 7.33723 4.30874 7.27334 4.44007C7.20945 4.5714 7.18681 4.71728 7.20812 4.86039C7.22943 5.0035 7.29379 5.13784 7.39355 5.24745L6.08144 6.80784C6.02537 6.87482 5.94691 6.92188 5.85886 6.94136C5.77081 6.96084 5.67836 6.95158 5.5966 6.91508L3.58764 6.02085C3.61709 5.86536 3.59416 5.70506 3.52206 5.56252C3.44997 5.41997 3.33235 5.30235 3.18575 5.22621C3.03915 5.15006 2.87095 5.11922 2.70481 5.13803C2.53867 5.15683 2.38297 5.22434 2.25959 5.33105C2.13622 5.43775 2.05139 5.57829 2.01704 5.73288C1.98269 5.88748 2.00055 6.04835 2.06811 6.19286C2.13566 6.33737 2.24952 6.45825 2.39365 6.53849C2.53778 6.61873 2.70493 6.65429 2.87158 6.64017L3.91167 11.5494C3.9571 11.7631 4.07944 11.9553 4.25794 12.0935C4.43643 12.2318 4.66009 12.3074 4.89095 12.3077H11.1075C11.3387 12.3077 11.5628 12.2321 11.7417 12.0937C11.9205 11.9553 12.043 11.7627 12.0883 11.5486L13.1284 6.64017C13.2951 6.65429 13.4622 6.61873 13.6064 6.53849C13.7505 6.45825 13.8643 6.33737 13.9319 6.19286C13.9994 6.04835 14.0173 5.88748 13.983 5.73288C13.9486 5.57829 13.8638 5.43775 13.7404 5.33105C13.617 5.22434 13.4613 5.15683 13.2952 5.13803C13.1291 5.11922 12.9609 5.15006 12.8143 5.22621C12.6677 5.30235 12.55 5.41997 12.4779 5.56252C12.4058 5.70506 12.3829 5.86536 12.4124 6.02085L10.4026 6.91508C10.3209 6.95138 10.2287 6.96054 10.1408 6.94107C10.0529 6.9216 9.97459 6.87464 9.91856 6.80784H9.91936ZM8 10.0419C7.78781 10.0419 7.58431 9.96232 7.43427 9.82068C7.28423 9.67904 7.19993 9.48693 7.19993 9.28662C7.19993 9.08631 7.28423 8.89421 7.43427 8.75257C7.58431 8.61093 7.78781 8.53136 8 8.53136C8.21219 8.53136 8.41569 8.61093 8.56573 8.75257C8.71577 8.89421 8.80007 9.08631 8.80007 9.28662C8.80007 9.48693 8.71577 9.67904 8.56573 9.82068C8.41569 9.96232 8.21219 10.0419 8 10.0419Z" fill="#141414"/>
</g>
<defs>
<clipPath id="clip0_634_13230">
<rect width="16" height="16" fill="white"/>
</clipPath>
</defs>
</svg>
