<svg width="28" height="28" viewBox="0 0 28 28" fill="none" xmlns="http://www.w3.org/2000/svg">
<path d="M7.86111 15.4444C8.33997 15.4444 8.79922 15.2542 9.13783 14.9156C9.47644 14.577 9.66667 14.1178 9.66667 13.6389C9.66667 13.16 9.47644 12.7008 9.13783 12.3622C8.79922 12.0236 8.33997 11.8333 7.86111 11.8333C7.38225 11.8333 6.923 12.0236 6.58439 12.3622C6.24578 12.7008 6.05556 13.16 6.05556 13.6389C6.05556 14.1178 6.24578 14.577 6.58439 14.9156C6.923 15.2542 7.38225 15.4444 7.86111 15.4444ZM15.8056 13.6389C15.8056 14.1178 15.6153 14.577 15.2767 14.9156C14.9381 15.2542 14.4789 15.4444 14 15.4444C13.5211 15.4444 13.0619 15.2542 12.7233 14.9156C12.3847 14.577 12.1944 14.1178 12.1944 13.6389C12.1944 13.16 12.3847 12.7008 12.7233 12.3622C13.0619 12.0236 13.5211 11.8333 14 11.8333C14.4789 11.8333 14.9381 12.0236 15.2767 12.3622C15.6153 12.7008 15.8056 13.16 15.8056 13.6389ZM20.1389 15.4444C20.6178 15.4444 21.077 15.2542 21.4156 14.9156C21.7542 14.577 21.9444 14.1178 21.9444 13.6389C21.9444 13.16 21.7542 12.7008 21.4156 12.3622C21.077 12.0236 20.6178 11.8333 20.1389 11.8333C19.66 11.8333 19.2008 12.0236 18.8622 12.3622C18.5236 12.7008 18.3333 13.16 18.3333 13.6389C18.3333 14.1178 18.5236 14.577 18.8622 14.9156C19.2008 15.2542 19.66 15.4444 20.1389 15.4444ZM9.66667 19.4167C9.66667 19.8955 9.47644 20.3548 9.13783 20.6934C8.79922 21.032 8.33997 21.2222 7.86111 21.2222C7.38225 21.2222 6.923 21.032 6.58439 20.6934C6.24578 20.3548 6.05556 19.8955 6.05556 19.4167C6.05556 18.9378 6.24578 18.4786 6.58439 18.1399C6.923 17.8013 7.38225 17.6111 7.86111 17.6111C8.33997 17.6111 8.79922 17.8013 9.13783 18.1399C9.47644 18.4786 9.66667 18.9378 9.66667 19.4167ZM14 21.2222C14.4789 21.2222 14.9381 21.032 15.2767 20.6934C15.6153 20.3548 15.8056 19.8955 15.8056 19.4167C15.8056 18.9378 15.6153 18.4786 15.2767 18.1399C14.9381 17.8013 14.4789 17.6111 14 17.6111C13.5211 17.6111 13.0619 17.8013 12.7233 18.1399C12.3847 18.4786 12.1944 18.9378 12.1944 19.4167C12.1944 19.8955 12.3847 20.3548 12.7233 20.6934C13.0619 21.032 13.5211 21.2222 14 21.2222ZM1 5.51389C1 4.31673 1.47557 3.16861 2.32209 2.32209C3.16861 1.47557 4.31673 1 5.51389 1H22.4861C23.6833 1 24.8314 1.47557 25.6779 2.32209C26.5244 3.16861 27 4.31673 27 5.51389V22.4861C27 23.6833 26.5244 24.8314 25.6779 25.6779C24.8314 26.5244 23.6833 27 22.4861 27H5.51389C4.31673 27 3.16861 26.5244 2.32209 25.6779C1.47557 24.8314 1 23.6833 1 22.4861V5.51389ZM5.51389 2.80556C4.79559 2.80556 4.10672 3.0909 3.59881 3.59881C3.0909 4.10672 2.80556 4.79559 2.80556 5.51389V6.77778H25.1944V5.51389C25.1944 4.79559 24.9091 4.10672 24.4012 3.59881C23.8933 3.0909 23.2044 2.80556 22.4861 2.80556H5.51389ZM2.80556 22.4861C2.80556 23.2044 3.0909 23.8933 3.59881 24.4012C4.10672 24.9091 4.79559 25.1944 5.51389 25.1944H22.4861C23.2044 25.1944 23.8933 24.9091 24.4012 24.4012C24.9091 23.8933 25.1944 23.2044 25.1944 22.4861V8.58333H2.80556V22.4861Z" fill="white"/>
</svg>
