<?xml version="1.0" standalone="no"?>
<!DOCTYPE svg PUBLIC "-//W3C//DTD SVG 20010904//EN"
 "http://www.w3.org/TR/2001/REC-SVG-20010904/DTD/svg10.dtd">
<svg version="1.0" xmlns="http://www.w3.org/2000/svg"
 width="768.000000pt" height="768.000000pt" viewBox="0 0 768.000000 768.000000"
 preserveAspectRatio="xMidYMid meet">
<metadata>
Created by potrace 1.14, written by Peter Selinger 2001-2017
</metadata>
<g transform="translate(0.000000,768.000000) scale(0.100000,-0.100000)"
fill="#000000" stroke="none">
<path d="M3355 7664 c-33 -7 -72 -16 -86 -19 -14 -2 -57 -14 -94 -26 -37 -11
-75 -22 -84 -24 -109 -25 -460 -186 -578 -265 -24 -17 -46 -30 -48 -30 -5 0
-100 -66 -122 -85 -7 -5 -18 -14 -25 -20 -117 -91 -226 -197 -306 -295 -29
-36 -58 -72 -65 -80 -58 -67 -171 -277 -221 -410 -15 -41 -34 -88 -41 -105 -7
-16 -39 -91 -70 -165 -68 -161 -89 -209 -122 -275 -14 -27 -25 -52 -26 -55 -1
-6 -32 -78 -67 -155 -92 -204 -153 -341 -154 -351 -1 -7 -7 -18 -13 -25 -6 -8
-11 -16 -11 -19 -1 -8 -22 -62 -43 -110 -12 -25 -25 -56 -31 -70 -6 -14 -17
-37 -25 -52 -8 -16 -11 -28 -7 -28 3 0 1 -7 -6 -15 -7 -8 -9 -15 -5 -15 4 0 3
-6 -3 -12 -5 -7 -31 -67 -57 -133 -26 -66 -53 -133 -60 -150 -53 -123 -235
-673 -261 -790 -3 -16 -17 -66 -29 -110 -13 -45 -26 -94 -29 -110 -8 -44 -58
-258 -64 -275 -7 -21 -7 -19 -17 -75 -4 -27 -9 -54 -11 -60 -7 -29 -46 -214
-50 -240 -3 -16 -9 -52 -15 -80 -13 -68 -15 -83 -24 -135 -4 -25 -9 -54 -11
-65 -2 -10 -6 -37 -9 -60 -3 -22 -8 -47 -10 -55 -2 -8 -6 -35 -9 -60 -3 -25
-7 -54 -10 -65 -2 -11 -7 -47 -11 -80 -4 -32 -9 -68 -12 -80 -11 -53 -11 -205
1 -257 17 -70 58 -147 105 -195 31 -32 241 -176 261 -178 3 0 23 -12 45 -26
22 -15 50 -29 63 -33 12 -4 22 -12 22 -17 0 -5 5 -9 10 -9 6 0 70 -29 143 -64
147 -72 316 -140 473 -191 102 -34 355 -99 424 -109 19 -3 46 -8 60 -11 43 -9
185 -29 300 -41 81 -9 690 -12 728 -3 18 4 32 3 32 -3 0 -5 5 -6 10 -3 6 4 45
8 87 10 152 9 284 20 363 31 25 3 60 8 79 10 40 4 84 10 161 24 30 5 71 12 90
15 32 5 231 51 255 59 6 1 24 6 40 10 54 14 149 44 180 57 17 6 35 13 40 14
23 6 161 70 176 82 8 7 19 13 24 13 4 0 23 12 42 26 35 26 63 26 63 0 0 -8 5
-27 12 -43 6 -15 12 -32 14 -38 3 -12 73 -184 98 -240 10 -22 22 -49 27 -60 5
-11 40 -90 80 -175 39 -85 71 -160 73 -166 1 -7 8 -19 15 -28 7 -9 11 -16 8
-16 -3 0 14 -41 39 -90 24 -50 44 -92 44 -94 0 -3 24 -55 54 -118 30 -62 73
-153 97 -203 23 -50 43 -92 43 -95 1 -3 21 -45 44 -93 42 -87 43 -89 65 -73
12 9 40 28 62 43 40 26 146 103 155 113 3 3 23 19 45 35 22 16 52 41 66 55 15
14 48 43 75 65 60 50 255 245 311 311 23 27 51 60 63 74 54 61 212 274 275
370 98 151 104 160 175 285 45 80 209 409 209 420 0 3 9 25 20 49 23 52 123
317 125 331 1 6 7 24 13 40 12 30 69 215 78 251 3 10 18 71 35 134 16 63 32
129 35 145 3 17 8 38 11 47 5 18 9 35 24 118 6 30 12 66 15 80 3 14 7 41 10
60 3 19 7 46 10 60 6 29 16 102 20 145 2 17 4 30 5 30 0 0 3 21 5 47 2 25 6
61 9 80 20 131 29 698 13 863 -15 153 -19 180 -26 187 -3 4 -47 -12 -96 -36
-161 -77 -340 -226 -496 -411 -19 -22 -44 -51 -56 -65 -13 -14 -23 -28 -23
-31 0 -3 -9 -16 -20 -29 -11 -13 -41 -55 -67 -94 -27 -39 -54 -77 -60 -84 -7
-7 -13 -18 -13 -23 0 -17 -15 -8 -70 42 -30 27 -68 60 -84 72 -16 12 -37 30
-47 40 -11 9 -21 17 -24 17 -3 0 -31 19 -62 43 -32 24 -83 58 -113 77 -30 19
-57 37 -60 40 -13 16 -245 122 -315 145 -98 32 -156 40 -265 38 -103 -1 -251
-37 -385 -93 -16 -7 -35 -14 -42 -16 -13 -2 -49 -19 -248 -112 -66 -31 -122
-59 -125 -62 -3 -3 -43 -25 -90 -49 -47 -25 -143 -78 -215 -119 -174 -100
-167 -96 -311 -186 l-127 -79 -41 44 c-88 95 -224 178 -321 195 -56 10 -215
12 -245 3 -14 -4 -52 -15 -85 -24 -133 -37 -327 -134 -524 -263 -86 -56 -221
-151 -231 -162 -7 -8 -58 -40 -64 -40 -5 0 -14 37 -21 88 -5 33 -10 66 -20
117 -3 17 -7 44 -10 60 -3 17 -7 39 -9 50 -2 11 -7 43 -10 70 -4 28 -8 61 -11
75 -2 14 -6 41 -9 60 -23 171 -27 203 -22 208 3 3 2 10 -3 16 -5 6 -11 49 -15
96 -4 47 -8 96 -11 110 -2 14 -7 63 -10 110 -3 47 -8 103 -9 125 -11 124 -19
334 -19 425 1 103 4 145 17 245 12 91 15 109 26 165 6 30 13 67 15 82 7 36 41
174 54 216 5 18 10 35 10 37 2 22 34 116 42 121 5 3 7 9 4 14 -3 5 1 23 10 39
8 17 16 38 18 48 2 10 16 44 30 77 15 32 27 60 27 62 0 10 94 201 105 214 8 8
14 18 14 23 0 4 8 21 18 37 16 27 21 30 53 25 120 -21 408 -32 492 -21 127 18
193 44 253 100 22 21 47 43 55 49 8 7 31 31 52 54 34 39 37 40 55 24 29 -26
143 -96 197 -120 123 -54 226 -32 264 57 19 44 36 133 34 177 -1 16 -9 65 -17
95 -4 18 -46 89 -59 99 -14 12 -14 16 5 40 28 36 50 88 56 136 2 21 5 42 6 45
4 18 -16 148 -29 183 -83 220 -234 431 -349 487 -60 29 -150 34 -240 14z"/>
</g>
</svg>
