<svg width="28" height="28" viewBox="0 0 28 28" fill="none" xmlns="http://www.w3.org/2000/svg">
<path d="M8.7713 13.7956C10.2029 13.7956 11.5758 13.2269 12.5881 12.2146C13.6003 11.2024 14.169 9.82944 14.169 8.39787C14.169 6.96631 13.6003 5.59338 12.5881 4.58111C11.5758 3.56884 10.2029 3.00015 8.7713 3.00015C7.33973 3.00015 5.9668 3.56884 4.95453 4.58111C3.94226 5.59338 3.37358 6.96631 3.37358 8.39787C3.37358 9.82944 3.94226 11.2024 4.95453 12.2146C5.9668 13.2269 7.33973 13.7956 8.7713 13.7956ZM20.9162 13.7956C21.9898 13.7956 23.0195 13.3691 23.7787 12.6099C24.5379 11.8507 24.9645 10.821 24.9645 9.7473C24.9645 8.67363 24.5379 7.64393 23.7787 6.88473C23.0195 6.12553 21.9898 5.69901 20.9162 5.69901C19.8425 5.69901 18.8128 6.12553 18.0536 6.88473C17.2944 7.64393 16.8679 8.67363 16.8679 9.7473C16.8679 10.821 17.2944 11.8507 18.0536 12.6099C18.8128 13.3691 19.8425 13.7956 20.9162 13.7956ZM2.53018 15.8197C1.85914 15.8197 1.21557 16.0863 0.741073 16.5608C0.266572 17.0353 0 17.6789 0 18.3499V19.1933C0 19.1933 0 25.2657 8.7713 25.2657C17.5426 25.2657 17.5426 19.1933 17.5426 19.1933V18.3499C17.5426 17.6789 17.276 17.0353 16.8015 16.5608C16.327 16.0863 15.6835 15.8197 15.0124 15.8197H2.53018ZM17.3226 23.3017C18.251 23.6781 19.4271 23.9163 20.9155 23.9163C28 23.9163 28 18.5186 28 18.5186V18.3499C28 17.679 27.7335 17.0355 27.2592 16.5611C26.7848 16.0866 26.1414 15.8199 25.4705 15.8197H17.9521C18.5588 16.523 18.892 17.4212 18.8907 18.3499V19.2237L18.89 19.2621C18.886 19.3931 18.877 19.5239 18.863 19.6541C18.8296 19.9553 18.7752 20.2538 18.7004 20.5475C18.4449 21.5541 17.9749 22.4936 17.3226 23.3017Z" fill="#A6FF4D"/>
</svg>
