<svg width="28" height="28" viewBox="0 0 28 28" fill="none" xmlns="http://www.w3.org/2000/svg">
<path d="M5.06024 8.39774C5.06024 7.41357 5.4512 6.4697 6.14712 5.77378C6.84304 5.07786 7.78691 4.6869 8.77108 4.6869C9.75526 4.6869 10.6991 5.07786 11.395 5.77378C12.091 6.4697 12.4819 7.41357 12.4819 8.39774C12.4819 9.38192 12.091 10.3258 11.395 11.0217C10.6991 11.7176 9.75526 12.1086 8.77108 12.1086C7.78691 12.1086 6.84304 11.7176 6.14712 11.0217C5.4512 10.3258 5.06024 9.38192 5.06024 8.39774ZM8.77108 3.00015C7.33955 3.00015 5.96666 3.56883 4.95441 4.58107C3.94217 5.59331 3.37349 6.96621 3.37349 8.39774C3.37349 9.82927 3.94217 11.2022 4.95441 12.2144C5.96666 13.2267 7.33955 13.7953 8.77108 13.7953C10.2026 13.7953 11.5755 13.2267 12.5878 12.2144C13.6 11.2022 14.1687 9.82927 14.1687 8.39774C14.1687 6.96621 13.6 5.59331 12.5878 4.58107C11.5755 3.56883 10.2026 3.00015 8.77108 3.00015ZM18.5542 9.74714C18.5542 9.12085 18.803 8.5202 19.2459 8.07735C19.6887 7.63449 20.2894 7.38569 20.9157 7.38569C21.542 7.38569 22.1426 7.63449 22.5855 8.07735C23.0283 8.5202 23.2771 9.12085 23.2771 9.74714C23.2771 10.3734 23.0283 10.9741 22.5855 11.4169C22.1426 11.8598 21.542 12.1086 20.9157 12.1086C20.2894 12.1086 19.6887 11.8598 19.2459 11.4169C18.803 10.9741 18.5542 10.3734 18.5542 9.74714ZM20.9157 5.69895C19.842 5.69895 18.8123 6.12545 18.0532 6.88464C17.294 7.64382 16.8675 8.67349 16.8675 9.74714C16.8675 10.8208 17.294 11.8505 18.0532 12.6096C18.8123 13.3688 19.842 13.7953 20.9157 13.7953C21.9893 13.7953 23.019 13.3688 23.7782 12.6096C24.5373 11.8505 24.9639 10.8208 24.9639 9.74714C24.9639 8.67349 24.5373 7.64382 23.7782 6.88464C23.019 6.12545 21.9893 5.69895 20.9157 5.69895ZM20.9157 23.9158C19.4475 23.9158 18.2695 23.6783 17.329 23.2937L17.4545 23.1318C17.7878 22.6926 18.0435 22.2527 18.2391 21.8357C18.9273 22.0752 19.8017 22.2291 20.915 22.2291C23.8 22.2291 25.0799 21.1948 25.6804 20.319C26.0224 19.8158 26.2366 19.2369 26.3045 18.6322C26.3083 18.5928 26.3111 18.5532 26.3126 18.5135V18.3496C26.3126 17.884 25.9347 17.5062 25.4692 17.5062H18.7991C18.6606 16.8826 18.3696 16.3031 17.9524 15.8194H25.4699C26.1409 15.8194 26.7845 16.086 27.2589 16.5605C27.7334 17.035 28 17.6785 28 18.3496V18.5499L27.998 18.608C27.9953 18.6552 27.9912 18.7186 27.9845 18.7962C27.8888 19.684 27.5757 20.5344 27.073 21.2723C26.1115 22.6723 24.2709 23.9158 20.9143 23.9158H20.9157ZM2.53012 15.8194C1.85909 15.8194 1.21554 16.086 0.741055 16.5605C0.266565 17.035 0 17.6785 0 18.3496V19.2287L0.00269876 19.2941C0.00539756 19.3481 0.0107952 19.4196 0.0202409 19.5087C0.0398072 19.6855 0.0769156 19.9283 0.149783 20.2171C0.343144 20.9777 0.687299 21.6917 1.16183 22.3168C2.34728 23.8794 4.60549 25.2652 8.77108 25.2652C12.9373 25.2652 15.1956 23.8794 16.3797 22.3168C16.8545 21.6916 17.1989 20.9773 17.3924 20.2164C17.4653 19.9283 17.5024 19.6855 17.5219 19.508C17.5321 19.4152 17.5389 19.322 17.5422 19.2287V18.3496C17.5422 18.0173 17.4767 17.6883 17.3496 17.3813C17.2224 17.0743 17.0361 16.7954 16.8011 16.5605C16.5662 16.3255 16.2873 16.1392 15.9803 16.012C15.6733 15.8849 15.3443 15.8194 15.012 15.8194H2.53012ZM1.68742 19.2091L1.68675 19.1875V18.3496C1.68675 17.884 2.06458 17.5062 2.53012 17.5062H15.012C15.4776 17.5062 15.8554 17.884 15.8554 18.3496V19.1875L15.8547 19.2091C15.8395 19.4094 15.807 19.6081 15.7576 19.8029C15.6195 20.3445 15.374 20.853 15.0357 21.298C14.2382 22.3505 12.5325 23.5785 8.77108 23.5785C5.00964 23.5785 3.304 22.3505 2.50651 21.298C2.16824 20.8532 1.92275 20.345 1.78458 19.8035C1.73521 19.6085 1.70271 19.4097 1.68742 19.2091Z" fill="white"/>
</svg>
