<svg width="23" height="24" viewBox="0 0 23 24" fill="none" xmlns="http://www.w3.org/2000/svg">
<path d="M14.9679 4H17.7744C18.2706 4 18.7465 4.21071 19.0974 4.58579C19.4482 4.96086 19.6453 5.46957 19.6453 6V7M14.9679 20H17.7744C18.2706 20 18.7465 19.7893 19.0974 19.4142C19.4482 19.0391 19.6453 18.5304 19.6453 18V17M8.42048 12H8.41954M14.9679 12H19.6453M19.6453 12L17.7744 10M19.6453 12L17.7744 14M4.13971 19.428L9.75261 21.228C10.032 21.3177 10.3272 21.3362 10.6145 21.2822C10.9018 21.2282 11.1733 21.1031 11.4074 20.917C11.6414 20.7308 11.8315 20.4887 11.9625 20.2101C12.0934 19.9314 12.1615 19.6238 12.1615 19.312V4.688C12.1615 4.37615 12.0934 4.06861 11.9625 3.78993C11.8315 3.51126 11.6414 3.26917 11.4074 3.08301C11.1733 2.89685 10.9018 2.77178 10.6145 2.71778C10.3272 2.66377 10.032 2.68234 9.75261 2.772L4.13971 4.572C3.7543 4.69567 3.41647 4.94886 3.17633 5.294C2.9362 5.63915 2.80655 6.05786 2.80664 6.488V17.512C2.80655 17.9421 2.9362 18.3608 3.17633 18.706C3.41647 19.0511 3.7543 19.3043 4.13971 19.428Z" stroke="white" stroke-width="2" stroke-linecap="round" stroke-linejoin="round"/>
</svg>
