<svg width="28" height="28" viewBox="0 0 28 28" fill="none" xmlns="http://www.w3.org/2000/svg">
<path d="M21.55 16.1667C22.465 16.1667 23.3425 16.5091 23.9895 17.1186C24.6365 17.7281 25 18.5547 25 19.4167V20.1913C25 24.0663 20.1585 27 13.5 27C6.8415 27 2 24.2191 2 20.1913V19.4167C2 18.5547 2.36348 17.7281 3.01048 17.1186C3.65748 16.5091 4.535 16.1667 5.45 16.1667H21.55ZM13.5 1C14.4061 1 15.3034 1.16813 16.1405 1.49478C16.9777 1.82144 17.7383 2.30023 18.379 2.90381C19.0198 3.50739 19.528 4.22394 19.8748 5.01256C20.2215 5.80117 20.4 6.64641 20.4 7.5C20.4 8.35359 20.2215 9.19883 19.8748 9.98744C19.528 10.7761 19.0198 11.4926 18.379 12.0962C17.7383 12.6998 16.9777 13.1786 16.1405 13.5052C15.3034 13.8319 14.4061 14 13.5 14C11.67 14 9.91496 13.3152 8.62096 12.0962C7.32696 10.8772 6.6 9.22391 6.6 7.5C6.6 5.77609 7.32696 4.12279 8.62096 2.90381C9.91496 1.68482 11.67 1 13.5 1Z" fill="#A6FF4D"/>
</svg>
