<svg width="93" height="93" viewBox="0 0 93 93" fill="none" xmlns="http://www.w3.org/2000/svg">
<path d="M58.125 81.375H15.5C13.4446 81.375 11.4733 80.5585 10.0199 79.1051C8.56652 77.6517 7.75 75.6804 7.75 73.625V19.375C7.75 17.3196 8.56652 15.3483 10.0199 13.8949C11.4733 12.4415 13.4446 11.625 15.5 11.625H77.5C79.5554 11.625 81.5267 12.4415 82.9801 13.8949C84.4335 15.3483 85.25 17.3196 85.25 19.375V58.125" stroke="white" stroke-width="1.5" stroke-linecap="round"/>
<path d="M7.75 27.125H85.25M19.375 19.4137L19.4138 19.3711M31 19.4137L31.0387 19.3711M42.625 19.4137L42.6637 19.3711M69.75 86.1916L77.9689 77.9689M77.9689 77.9689L86.1916 69.75M77.9689 77.9689L69.75 69.75M77.9689 77.9689L86.1916 86.1916" stroke="white" stroke-width="1.5" stroke-linecap="round" stroke-linejoin="round"/>
<path d="M23.8594 56V53.2109L31.0312 42.0312H35.4609V53.1641H37.6172V56H35.4609V59H32.1094V56H23.8594ZM27.4219 53.1641H32.1562V45.8984H31.9922L27.4219 53.0234V53.1641ZM46.5 59.2344C42.2578 59.2344 39.6797 56.0703 39.6797 50.5156C39.6797 44.9609 42.2578 41.7969 46.5 41.7969C50.7422 41.7969 53.3203 44.9844 53.3203 50.5156C53.3203 56.0938 50.7422 59.2344 46.5 59.2344ZM46.5 56.3281C48.4688 56.3281 49.7344 54.4297 49.7109 50.5156C49.7109 46.6484 48.4688 44.6797 46.5 44.6797C44.5312 44.6797 43.2891 46.6484 43.2891 50.5156C43.2656 54.4297 44.5312 56.3281 46.5 56.3281ZM55.4766 56V53.2109L62.6484 42.0312H67.0781V53.1641H69.2344V56H67.0781V59H63.7266V56H55.4766ZM59.0391 53.1641H63.7734V45.8984H63.6094L59.0391 53.0234V53.1641Z" fill="white"/>
</svg>
