<svg width="153" height="31" viewBox="0 0 153 31" fill="none" xmlns="http://www.w3.org/2000/svg">
<path d="M21.864 2.688C22.6533 2.688 23.2613 2.85867 23.688 3.2C24.136 3.54133 24.36 4.01067 24.36 4.608C24.36 4.90667 24.3173 5.19467 24.232 5.472L23.4 8.448C23.2507 9.00267 23.0053 9.39733 22.664 9.632C22.3227 9.86667 21.8747 9.984 21.32 9.984C20.7867 9.984 20.36 9.87733 20.04 9.664C19.72 9.42933 19.4853 9.056 19.336 8.544L18.824 6.72C18.7387 6.4 18.632 6.18667 18.504 6.08C18.376 5.97333 18.1093 5.92 17.704 5.92H14.504L12.712 12.256H13.32C13.6187 12.256 13.8747 12.2133 14.088 12.128C14.3227 12.0427 14.568 11.8827 14.824 11.648L15.816 10.816C16.1787 10.496 16.4987 10.272 16.776 10.144C17.0747 9.99467 17.384 9.92 17.704 9.92C18.1093 9.92 18.44 10.0373 18.696 10.272C18.9733 10.5067 19.112 10.8373 19.112 11.264C19.112 11.4347 19.08 11.6373 19.016 11.872L17.608 16.736C17.288 17.7813 16.712 18.304 15.88 18.304C15.1973 18.304 14.664 17.952 14.28 17.248L13.704 16.16C13.5547 15.8613 13.416 15.6693 13.288 15.584C13.16 15.4987 12.968 15.456 12.712 15.456H11.784L10.44 20.224C10.3973 20.352 10.376 20.5227 10.376 20.736C10.376 21.0347 10.44 21.28 10.568 21.472C10.7173 21.664 10.9307 21.8667 11.208 22.08C11.4427 22.272 11.6027 22.432 11.688 22.56C11.7733 22.6667 11.816 22.8053 11.816 22.976C11.816 23.36 11.6453 23.6267 11.304 23.776C10.9627 23.9253 10.4613 24 9.8 24H1.768C1.21333 24 0.797333 23.904 0.52 23.712C0.242667 23.4987 0.146667 23.2107 0.232 22.848C0.274667 22.656 0.36 22.5067 0.488 22.4C0.594667 22.272 0.765333 22.1333 1 21.984C1.36267 21.7707 1.65067 21.5467 1.864 21.312C2.07733 21.0773 2.248 20.7147 2.376 20.224L6.312 6.432C6.39733 6.15467 6.44 5.89867 6.44 5.664C6.44 5.408 6.39733 5.19467 6.312 5.024C6.248 4.85333 6.14133 4.672 5.992 4.48C5.8 4.20267 5.704 3.97867 5.704 3.808C5.704 3.744 5.72533 3.62667 5.768 3.456C5.85333 3.17867 6.04533 2.98667 6.344 2.88C6.64267 2.752 7.08 2.688 7.656 2.688H21.864ZM29.6835 7.072C30.9208 7.072 31.8275 7.30667 32.4035 7.776C32.9795 8.24533 33.2675 8.88533 33.2675 9.696C33.2675 10.1867 33.1928 10.656 33.0435 11.104L30.0995 20.672C30.0355 20.928 30.0035 21.152 30.0035 21.344C30.0035 21.6213 30.0568 21.8453 30.1635 22.016C30.2702 22.1653 30.4195 22.3147 30.6115 22.464C30.7608 22.6133 30.8675 22.7413 30.9315 22.848C30.9955 22.9333 31.0062 23.0507 30.9635 23.2C30.8568 23.4773 30.6435 23.68 30.3235 23.808C30.0035 23.936 29.5128 24 28.8515 24H21.5555C21.0008 24 20.5955 23.9147 20.3395 23.744C20.0835 23.552 19.9982 23.3067 20.0835 23.008C20.1688 22.752 20.3928 22.528 20.7555 22.336C21.0755 22.1653 21.3422 21.9627 21.5555 21.728C21.7688 21.4933 21.9502 21.12 22.0995 20.608L24.8835 11.36C24.9475 11.168 24.9795 11.008 24.9795 10.88C24.9795 10.6453 24.9262 10.464 24.8195 10.336C24.7128 10.1867 24.5528 10.0373 24.3395 9.888C24.1262 9.71733 23.9768 9.568 23.8915 9.44C23.8062 9.312 23.7955 9.14133 23.8595 8.928C23.9875 8.43733 24.6595 8.01067 25.8755 7.648C27.0915 7.264 28.3608 7.072 29.6835 7.072ZM31.8275 -1.90735e-06C32.6595 -1.90735e-06 33.3528 0.277332 33.9075 0.831999C34.4622 1.36533 34.7395 2.02666 34.7395 2.816C34.7395 3.37067 34.5902 3.91467 34.2915 4.448C34.0142 4.98133 33.6088 5.41867 33.0755 5.76C32.5635 6.08 31.9875 6.24 31.3475 6.24C30.5368 6.24 29.8542 5.97333 29.2995 5.44C28.7662 4.88533 28.4888 4.20267 28.4675 3.392C28.4675 2.85867 28.6062 2.336 28.8835 1.824C29.1608 1.29067 29.5555 0.853332 30.0675 0.511999C30.5795 0.170665 31.1662 -1.90735e-06 31.8275 -1.90735e-06ZM47.3703 7.488C47.7756 7.488 48.0849 7.57333 48.2983 7.744C48.5329 7.91467 48.6503 8.14933 48.6503 8.448C48.6503 8.53333 48.6289 8.68267 48.5863 8.896C48.3089 9.83467 47.6689 10.304 46.6663 10.304H44.8103L42.4103 18.208C42.3036 18.528 42.2502 18.8587 42.2502 19.2C42.2502 19.584 42.3569 19.8507 42.5703 20C42.7836 20.1493 43.0823 20.224 43.4663 20.224C43.8076 20.224 44.2343 20.1813 44.7463 20.096C45.0023 20.032 45.2263 20 45.4183 20C45.5676 20 45.6743 20.0533 45.7383 20.16C45.8236 20.2453 45.8663 20.3627 45.8663 20.512C45.8876 20.9387 45.5676 21.4613 44.9062 22.08C44.2662 22.6773 43.3916 23.2 42.2823 23.648C41.1729 24.0747 39.9463 24.288 38.6023 24.288C37.1516 24.288 35.9889 23.9573 35.1142 23.296C34.2396 22.6347 33.8022 21.728 33.8022 20.576C33.8022 20.0427 33.8876 19.5307 34.0582 19.04L36.1063 12.704C36.2129 12.3413 36.2662 12.0533 36.2662 11.84C36.2662 11.4133 36.1596 11.0507 35.9462 10.752C35.7542 10.4533 35.4769 10.144 35.1142 9.824C34.7942 9.52533 34.5702 9.28 34.4422 9.088C34.3142 8.87467 34.2822 8.62933 34.3462 8.352C34.4316 8.07467 34.6129 7.86133 34.8902 7.712C35.1676 7.56267 35.6049 7.488 36.2023 7.488H37.9943L40.0103 5.472C40.7142 4.768 41.3542 4.27733 41.9303 4C42.5276 3.72267 43.2956 3.584 44.2343 3.584C45.5783 3.584 46.2503 4.096 46.2503 5.12C46.2503 5.44 46.2076 5.73867 46.1223 6.016L45.6743 7.488H47.3703ZM65.0403 2.688C66.4909 2.688 67.7496 2.912 68.8163 3.36C69.9043 3.78667 70.7256 4.384 71.2803 5.152C71.8563 5.89867 72.1443 6.76267 72.1443 7.744C72.1443 8.29867 72.0696 8.81067 71.9203 9.28C71.3016 11.4347 69.5203 12.8 66.5763 13.376C67.6003 13.6747 68.4109 14.176 69.0083 14.88C69.6056 15.5627 69.9043 16.416 69.9043 17.44C69.9043 17.9093 69.8189 18.464 69.6483 19.104C69.1789 20.768 68.2296 22.0053 66.8003 22.816C65.3923 23.6053 63.3869 24 60.7843 24H47.4723C47.0243 24 46.6829 23.9253 46.4483 23.776C46.1923 23.6267 46.0643 23.424 46.0643 23.168C46.0643 23.04 46.0963 22.9013 46.1603 22.752C46.2456 22.5173 46.3843 22.336 46.5763 22.208C46.7683 22.08 46.8856 22.0053 46.9283 21.984C47.2696 21.7707 47.5469 21.5573 47.7603 21.344C47.9736 21.1093 48.1549 20.736 48.3043 20.224L52.2083 6.432C52.2936 6.15467 52.3363 5.888 52.3363 5.632C52.3363 5.39733 52.2936 5.20533 52.2083 5.056C52.1443 4.88533 52.0483 4.69333 51.9203 4.48C51.7283 4.20267 51.6323 3.97867 51.6323 3.808C51.6323 3.744 51.6536 3.62667 51.6963 3.456C51.7816 3.17867 51.9629 2.98667 52.2403 2.88C52.5389 2.752 52.9869 2.688 53.5843 2.688H65.0403ZM63.6003 8.544C63.7496 8.07467 63.8243 7.63733 63.8243 7.232C63.8243 6.12267 63.1949 5.568 61.9363 5.568H60.4963L58.8003 11.552H60.2083C61.1043 11.552 61.8083 11.3387 62.3203 10.912C62.8536 10.464 63.2803 9.67467 63.6003 8.544ZM61.2643 17.952C61.4136 17.44 61.4883 16.9707 61.4883 16.544C61.4883 15.392 60.8269 14.816 59.5043 14.816H57.9043L56.0803 21.12H57.7123C58.6296 21.12 59.3656 20.896 59.9203 20.448C60.4749 19.9787 60.9229 19.1467 61.2643 17.952ZM90.328 19.584C90.2853 19.7547 90.264 19.8827 90.264 19.968C90.264 20.1173 90.296 20.2347 90.36 20.32C90.4453 20.4053 90.552 20.448 90.68 20.448C90.936 20.448 91.1493 20.3413 91.32 20.128C91.512 19.8933 91.64 19.776 91.704 19.776C91.8107 19.776 91.896 19.8507 91.96 20C92.0453 20.128 92.088 20.288 92.088 20.48C92.1093 21.0773 91.896 21.6747 91.448 22.272C91 22.848 90.3707 23.328 89.56 23.712C88.7493 24.096 87.8427 24.288 86.84 24.288C85.5813 24.288 84.5787 24.032 83.832 23.52C83.0853 23.008 82.6053 22.336 82.392 21.504C81.624 22.3573 80.7707 23.008 79.832 23.456C78.9147 23.8827 77.976 24.096 77.016 24.096C75.5227 24.096 74.264 23.7333 73.24 23.008C72.2373 22.2613 71.736 21.2267 71.736 19.904C71.736 19.3067 71.8427 18.688 72.056 18.048L74.104 11.36C74.168 11.168 74.2 11.008 74.2 10.88C74.2 10.6453 74.1467 10.464 74.04 10.336C73.9333 10.1867 73.7733 10.0373 73.56 9.888C73.3467 9.71733 73.1973 9.568 73.112 9.44C73.0267 9.312 73.016 9.14133 73.08 8.928C73.208 8.43733 73.88 8.01067 75.096 7.648C76.312 7.264 77.5813 7.072 78.904 7.072C80.1413 7.072 81.048 7.30667 81.624 7.776C82.2 8.24533 82.488 8.88533 82.488 9.696C82.488 10.1867 82.4133 10.656 82.264 11.104L80.248 17.76C80.1627 17.9947 80.12 18.2187 80.12 18.432C80.12 18.7307 80.2053 18.9547 80.376 19.104C80.5467 19.2533 80.7707 19.328 81.048 19.328C81.4533 19.328 81.784 19.2107 82.04 18.976C82.296 18.7413 82.552 18.3467 82.808 17.792L84.76 11.36C84.824 11.168 84.856 11.008 84.856 10.88C84.856 10.6453 84.8027 10.464 84.696 10.336C84.5893 10.1867 84.44 10.0373 84.248 9.888C84.0347 9.71733 83.8853 9.568 83.8 9.44C83.7147 9.312 83.704 9.14133 83.768 8.928C83.8747 8.43733 84.536 8.01067 85.752 7.648C86.968 7.264 88.2373 7.072 89.56 7.072C90.7973 7.072 91.704 7.30667 92.28 7.776C92.8773 8.24533 93.176 8.87467 93.176 9.664C93.176 10.0693 93.0907 10.5493 92.92 11.104L90.328 19.584ZM111.226 19.392C111.183 19.5627 111.162 19.68 111.162 19.744C111.162 19.8933 111.204 20.0107 111.29 20.096C111.375 20.1813 111.482 20.224 111.61 20.224C111.866 20.224 112.079 20.1173 112.25 19.904C112.442 19.6693 112.57 19.552 112.634 19.552C112.74 19.552 112.826 19.6267 112.89 19.776C112.954 19.9253 112.986 20.096 112.986 20.288C113.007 20.864 112.783 21.4507 112.314 22.048C111.866 22.6453 111.258 23.136 110.49 23.52C109.722 23.904 108.89 24.096 107.994 24.096C106.927 24.096 105.999 23.8933 105.21 23.488C104.42 23.0827 103.876 22.5493 103.578 21.888C103.002 22.6347 102.34 23.1893 101.594 23.552C100.847 23.9147 100.058 24.096 99.2255 24.096C98.2442 24.096 97.3268 23.8507 96.4735 23.36C95.6415 22.8693 94.9695 22.176 94.4575 21.28C93.9668 20.3627 93.7215 19.328 93.7215 18.176C93.7215 16.2347 94.0842 14.4107 94.8095 12.704C95.5562 10.976 96.5908 9.58933 97.9135 8.544C99.2362 7.47733 100.74 6.944 102.426 6.944C103.343 6.944 104.122 7.05067 104.762 7.264C105.423 7.47733 106.02 7.79733 106.554 8.224L107.642 4.64C107.706 4.448 107.738 4.288 107.738 4.16C107.738 3.92533 107.674 3.73333 107.546 3.584C107.439 3.43467 107.29 3.28533 107.098 3.136C106.884 2.96533 106.724 2.816 106.618 2.688C106.532 2.56 106.522 2.38933 106.586 2.176C106.714 1.68533 107.386 1.25867 108.602 0.895998C109.818 0.533332 111.087 0.351999 112.41 0.351999C113.647 0.351999 114.554 0.586666 115.13 1.056C115.727 1.52533 116.026 2.16533 116.026 2.976C116.026 3.44533 115.951 3.904 115.802 4.352L111.226 19.392ZM105.882 10.4C105.54 10.1013 105.167 9.952 104.762 9.952C104.143 9.952 103.535 10.4107 102.938 11.328C102.34 12.2453 101.86 13.3547 101.498 14.656C101.135 15.9573 100.964 17.1307 100.986 18.176C100.986 19.3493 101.37 19.936 102.138 19.936C102.415 19.936 102.65 19.8293 102.842 19.616C103.034 19.3813 103.215 19.008 103.386 18.496L105.882 10.4ZM129.712 19.392C129.669 19.5627 129.648 19.68 129.648 19.744C129.648 19.8933 129.69 20.0107 129.776 20.096C129.861 20.1813 129.968 20.224 130.096 20.224C130.352 20.224 130.565 20.1173 130.736 19.904C130.928 19.6693 131.056 19.552 131.12 19.552C131.226 19.552 131.312 19.6267 131.376 19.776C131.44 19.9253 131.472 20.096 131.472 20.288C131.493 20.864 131.269 21.4507 130.8 22.048C130.352 22.6453 129.744 23.136 128.976 23.52C128.208 23.904 127.376 24.096 126.48 24.096C125.413 24.096 124.485 23.8933 123.696 23.488C122.906 23.0827 122.362 22.5493 122.064 21.888C121.488 22.6347 120.826 23.1893 120.08 23.552C119.333 23.9147 118.544 24.096 117.712 24.096C116.73 24.096 115.813 23.8507 114.96 23.36C114.128 22.8693 113.456 22.176 112.944 21.28C112.453 20.3627 112.208 19.328 112.208 18.176C112.208 16.2347 112.57 14.4107 113.296 12.704C114.042 10.976 115.077 9.58933 116.4 8.544C117.722 7.47733 119.226 6.944 120.912 6.944C121.829 6.944 122.608 7.05067 123.248 7.264C123.909 7.47733 124.506 7.79733 125.04 8.224L126.128 4.64C126.192 4.448 126.224 4.288 126.224 4.16C126.224 3.92533 126.16 3.73333 126.032 3.584C125.925 3.43467 125.776 3.28533 125.584 3.136C125.37 2.96533 125.21 2.816 125.104 2.688C125.018 2.56 125.008 2.38933 125.072 2.176C125.2 1.68533 125.872 1.25867 127.088 0.895998C128.304 0.533332 129.573 0.351999 130.896 0.351999C132.133 0.351999 133.04 0.586666 133.616 1.056C134.213 1.52533 134.512 2.16533 134.512 2.976C134.512 3.44533 134.437 3.904 134.288 4.352L129.712 19.392ZM124.368 10.4C124.026 10.1013 123.653 9.952 123.248 9.952C122.629 9.952 122.021 10.4107 121.424 11.328C120.826 12.2453 120.346 13.3547 119.984 14.656C119.621 15.9573 119.45 17.1307 119.472 18.176C119.472 19.3493 119.856 19.936 120.624 19.936C120.901 19.936 121.136 19.8293 121.328 19.616C121.52 19.3813 121.701 19.008 121.872 18.496L124.368 10.4ZM149.832 7.072C150.771 7.072 151.518 7.456 152.072 8.224C152.648 8.97067 152.936 9.99467 152.936 11.296C152.936 12.4267 152.734 13.6427 152.328 14.944C151.539 17.568 150.27 20.0427 148.52 22.368C146.792 24.6933 144.798 26.56 142.536 27.968C140.296 29.376 138.056 30.08 135.816 30.08C134.707 30.08 133.747 29.888 132.936 29.504C132.147 29.12 131.55 28.608 131.144 27.968C130.718 27.328 130.504 26.6453 130.504 25.92C130.504 25.6 130.558 25.248 130.664 24.864C130.856 24.2667 131.176 23.808 131.624 23.488C132.072 23.168 132.606 23.008 133.224 23.008C134.206 23.008 135.006 23.3387 135.624 24C136.264 24.6827 136.67 25.6107 136.84 26.784C138.206 26.72 139.464 26.1333 140.616 25.024C139.528 24.832 138.718 24.4693 138.184 23.936C137.672 23.3813 137.32 22.528 137.128 21.376L135.848 13.536C135.784 13.1307 135.688 12.8533 135.56 12.704C135.454 12.5333 135.304 12.448 135.112 12.448C134.963 12.448 134.782 12.5227 134.568 12.672C134.376 12.8213 134.238 12.896 134.152 12.896C133.982 12.896 133.896 12.7147 133.896 12.352C133.896 12.0533 133.95 11.7333 134.056 11.392C134.44 10.176 135.155 9.152 136.2 8.32C137.246 7.46667 138.462 7.04 139.848 7.04C141.214 7.04 142.216 7.44533 142.856 8.256C143.518 9.06667 143.944 10.3147 144.136 12L145.096 19.04C145.16 19.5733 145.352 19.84 145.672 19.84C146.056 19.84 146.504 19.4987 147.016 18.816C147.528 18.112 148.03 17.12 148.52 15.84C147.88 15.264 147.39 14.6027 147.048 13.856C146.707 13.1093 146.536 12.3093 146.536 11.456C146.536 10.7947 146.622 10.1973 146.792 9.664C147.048 8.81067 147.443 8.17067 147.976 7.744C148.531 7.296 149.15 7.072 149.832 7.072Z" fill="#A6FF4D"/>
</svg>
