<svg width="24" height="24" viewBox="0 0 24 24" fill="none" xmlns="http://www.w3.org/2000/svg">
<mask id="mask0_190_13964" style="mask-type:luminance" maskUnits="userSpaceOnUse" x="2" y="2" width="20" height="20">
<path fill-rule="evenodd" clip-rule="evenodd" d="M2 2.00024H21.9596V21.95H2V2.00024Z" fill="white"/>
</mask>
<g mask="url(#mask0_190_13964)">
<path fill-rule="evenodd" clip-rule="evenodd" d="M7.65 3.5C5.129 3.5 3.5 5.227 3.5 7.899V16.051C3.5 18.724 5.129 20.45 7.65 20.45H16.3C18.827 20.45 20.46 18.724 20.46 16.051V7.899C20.46 5.227 18.827 3.5 16.3 3.5H7.65ZM16.3 21.95H7.65C4.27 21.95 2 19.579 2 16.051V7.899C2 4.371 4.27 2 7.65 2H16.3C19.685 2 21.96 4.371 21.96 7.899V16.051C21.96 19.579 19.685 21.95 16.3 21.95Z" fill="#AFB1B6"/>
</g>
<path fill-rule="evenodd" clip-rule="evenodd" d="M5.28126 17.1805C5.09526 17.1805 4.91026 17.1125 4.76526 16.9745C4.46426 16.6905 4.45226 16.2145 4.73726 15.9155L6.26526 14.3025C7.07426 13.4435 8.43926 13.4015 9.30226 14.2115L10.2603 15.1835C10.5273 15.4535 10.9613 15.4585 11.2293 15.1945C11.3303 15.0755 13.5083 12.4305 13.5083 12.4305C13.9223 11.9285 14.5063 11.6185 15.1553 11.5545C15.8053 11.4975 16.4363 11.6865 16.9393 12.0995C16.9823 12.1345 17.0213 12.1685 19.2173 14.4235C19.5063 14.7195 19.5013 15.1945 19.2043 15.4835C18.9083 15.7745 18.4323 15.7655 18.1433 15.4695C18.1433 15.4695 16.0943 13.3665 15.9483 13.2245C15.7933 13.0975 15.5443 13.0235 15.2993 13.0475C15.0503 13.0725 14.8263 13.1915 14.6673 13.3845C12.3433 16.2035 12.3153 16.2305 12.2773 16.2675C11.4193 17.1095 10.0343 17.0955 9.19126 16.2355C9.19126 16.2355 8.26126 15.2915 8.24526 15.2725C8.01426 15.0585 7.60226 15.0725 7.35526 15.3335L5.82526 16.9465C5.67726 17.1025 5.47926 17.1805 5.28126 17.1805Z" fill="#AFB1B6"/>
<path fill-rule="evenodd" clip-rule="evenodd" d="M8.55769 8.12891C8.00469 8.12891 7.55469 8.57891 7.55469 9.13291C7.55469 9.68691 8.00469 10.1379 8.55869 10.1379C9.11269 10.1379 9.56369 9.68691 9.56369 9.13291C9.56369 8.57991 9.11269 8.12991 8.55769 8.12891ZM8.55869 11.6379C7.17769 11.6379 6.05469 10.5139 6.05469 9.13291C6.05469 7.75191 7.17769 6.62891 8.55869 6.62891C9.94069 6.62991 11.0637 7.75391 11.0637 9.13291C11.0637 10.5139 9.93969 11.6379 8.55869 11.6379Z" fill="#AFB1B6"/>
</svg>
